<svg id="Layer_1" data-name="Layer 1" xmlns="http://www.w3.org/2000/svg" viewBox="0 0 100 100"><defs><style>.cls-1{fill:#008f73;}</style></defs><path class="cls-1" d="M94.58,67.5c-1.8,1.84-3.82,3.72-6,5.66s-4.61,3.89-7.23,5.94q-.72-6.91-.72-21.13V24.81Q80.58.49,50.59.5a85.66,85.66,0,0,0-15.8,1.87A92.29,92.29,0,0,1,17.6,4.21L26.66,15Q37.1,3.15,50.59,3.16q17.19,0,17.22,21.65V25Q61.44,26.76,56,28.52c-3.58,1.21-7.67,2.71-12.22,4.52s-8.64,3.72-12.25,5.59A78.41,78.41,0,0,0,20.8,45.47a56.29,56.29,0,0,0-9,8.24A35.79,35.79,0,0,0,6,63.41,29.93,29.93,0,0,0,3.74,74.85q0,10.44,9.16,17.57C19,97.14,26.82,99.5,36.39,99.5c11.37,0,23-3.42,35-10.28C73.23,88,75.69,86.39,77.73,85l3.91-2.68a95.07,95.07,0,0,0,9.65-8.16,35.92,35.92,0,0,0,4.21-4.59C97.22,67.21,95.62,66.49,94.58,67.5ZM39.42,96.68a18.7,18.7,0,0,1-14.36-6.13q-5.68-6.14-5.69-15.7,0-28.74,48.44-47.39V74c0,5.43.76,9.68,2.31,12.76Q53.26,96.66,39.42,96.68Z"/></svg>